<svg xmlns="http://www.w3.org/2000/svg" width="244" height="250" viewBox="0 0 244 250" xml:space="preserve">
    <path fill="#171617" stroke="#000" stroke-width="4" stroke-miterlimit="10" d="M137.5 12.5c-15.96-.01-32.29.15-49 .5-.87 1.04-1.87 1.88-3 2.5q.54-2.805 3-4.5c14.67-.67 29.33-.67 44 0 1.88.2 3.55.7 5 1.5Z" stroke-linecap="round"/>
    <path fill="#020102" stroke="#000" stroke-width="4" stroke-miterlimit="10" d="M137.5 12.5a376 376 0 0 1 17 27.5c17.33.33 34.67.67 52 1 6.51 9.35 12.51 19.01 18 29a1147 1147 0 0 1-16 28.5c-16.68 0-33.35-.17-50-.5 1.1.77 1.1 1.6 0 2.5h-1c.09-1-.25-1.83-1-2.5-21.32.38-42.65.54-64 .5-4.14.8-7.31-.54-9.5-4a556 556 0 0 1-21.5-39 602 602 0 0 1 24-40c1.13-.62 2.13-1.46 3-2.5 16.71-.35 33.04-.51 49-.5m-14 56h-1c-3.03-.16-5.86.51-8.5 2-3.38-1.51-3.21-2.84.5-4 3.14.59 6.14 1.26 9 2Z" stroke-linecap="round"/>
    <path fill="#1F1E1F" stroke="#000" stroke-width="4" stroke-miterlimit="10" d="M57.5 61.5a320 320 0 0 1-35.5-1c-.71.88-1.54 1.55-2.5 2-.09-1 .25-1.83 1-2.5 11.67-.67 23.33-.67 35 0 .92.28 1.58.78 2 1.5Z" stroke-linecap="round"/>
    <path fill="#020202" stroke="#000" stroke-width="4" stroke-miterlimit="10" d="M57.5 61.5c20.65 36.47 40.65 73.3 60 110.5a258.6 258.6 0 0 1-22 37 279 279 0 0 1-55 0A752 752 0 0 1 19 169.5q-1.005-3 0-6A983 983 0 0 1 32.5 137c-8.87-16.23-17.87-32.4-27-48.5 4.68-8.7 9.35-17.36 14-26 .96-.45 1.79-1.12 2.5-2a320 320 0 0 0 35.5 1m-2 62c1.41.47 2.07 1.47 2 3-1.41-.47-2.07-1.47-2-3m4 7c5.81 8.27 11.64 16.6 17.5 25 .96 4.73-.37 5.73-4 3a534 534 0 0 0-13.5-28Z" stroke-linecap="round"/>
    <path fill="#131011" stroke="#000" stroke-width="4" stroke-miterlimit="10" d="M122.5 68.5h1c16.59-1.55 33.76-2.22 51.5-2 12.5.33 25 .67 37.5 1-.21.59-.54 1.09-1 1.5-28.66 1.27-57.32 1.6-86 1q-1.86-.345-3-1.5Z" stroke-linecap="round"/>
    <path fill="#1E1D1F" stroke="#000" stroke-width="4" stroke-miterlimit="10" d="M157.5 100.5c-21.79-.65-43.46-1.31-65-2 21.35.04 42.68-.12 64-.5.75.67 1.09 1.5 1 2.5Z" stroke-linecap="round"/>
    <path fill="#18181A" stroke="#000" stroke-width="4" stroke-miterlimit="10" d="M208.5 98.5c-.11.62-.44 1.12-1 1.5-16.33.5-32.66.67-49 .5 1.1-.9 1.1-1.73 0-2.5 16.65.33 33.32.5 50 .5Z" stroke-linecap="round"/>
    <path fill="#020202" stroke="#000" stroke-width="4" stroke-miterlimit="10" d="M165.5 105.5c15-.17 30 0 45 .5a933 933 0 0 1 25.5 43.5c.67 1.67.67 3.33 0 5-7.42 13.16-15.08 26.16-23 39a546 546 0 0 1-32.5 1.5c-9.33 14.67-18.67 29.33-28 44-10.67.67-21.33.67-32 0a240 240 0 0 1-18-27.5c20.52-35.72 41.52-71.05 63-106m4 54c2.13-4.59 3.96-9.26 5.5-14 1.01-.84 2.18-1.17 3.5-1 .28 1.79-.05 3.46-1 5-2.68 3.36-5.34 6.7-8 10m0 0c-.25 2.17-1.25 3.84-3 5 .25-2.17 1.25-3.84 3-5m-5 8c.27 1.88-.4 3.21-2 4 .16-1.65.83-2.99 2-4Z" stroke-linecap="round"/>
    <path fill="#FFF" d="M39 91c39 65 26 130 39 65m59.56 55.81C182 143 234 143 182 143m6.64-74.96C104 65 78 26 104 65"/>
</svg>