<svg xmlns="http://www.w3.org/2000/svg" width="2048" height="474" style="shape-rendering:geometricPrecision;text-rendering:geometricPrecision;image-rendering:optimizeQuality;fill-rule:evenodd;clip-rule:evenodd">
  <path style="opacity:.989" d="M1064.5 159.5v31c-7.85-.325-15.52.008-23 1q-.69 27.603 1.5 55 2.22 4.744 7.5 5.5 10.485.75 21 .5v37c-14.51.766-28.85-.401-43-3.5-15.37-6.196-23.2-17.696-23.5-34.5-.5-19.997-.67-39.997-.5-60h-20v-32h20v-52h37v52z"/>
  <path style="opacity:.985" d="M312.5 156.5q66.825 1.149 74 67.5a223 223 0 0 1-2 16.5q-45.511-.5-91 1 17.652 21.195 42 8a520 520 0 0 1 31 23q-29.217 27.001-68 16.5-45.174-16.697-48-65 2.137-43.305 41-62 10.4-3.972 21-5.5m2 37q18.775-.361 30 14.5a676 676 0 0 1-52 0q8.33-11.407 22-14.5"/>
  <path style="opacity:.987" d="M458.5 156.5q50.792-1.4 70.5 45 15.463 60.311-40.5 86.5-57.264 15.232-85.5-36.5-18.247-53.319 27.5-85.5 13.425-7.058 28-9.5m3 37q25.767-.471 33.5 24 2.862 33.135-30 38-27.621-3.371-30.5-31 2.403-25.39 27-31"/>
  <path style="opacity:.991" d="M752.5 156.5q51.735-1.02 70.5 47a85 85 0 0 1 3 18q.75 34.996.5 70-42.063.685-84-1.5-48.333-14.871-52-65.5 1.895-43.558 41-62.5 10.4-3.972 21-5.5m2 37q29.582-.094 34.5 29 .75 16.493.5 33a276 276 0 0 1-38-1.5q-29.133-10.517-21.5-40.5 7.326-16.257 24.5-20"/>
  <path style="opacity:.988" d="M1131.5 156.5c32.55-.582 55.72 13.752 69.5 43a70.6 70.6 0 0 1 4 16c.5 25.331.67 50.664.5 76-26.34.167-52.67 0-79-.5-26.63-5.966-44.46-21.799-53.5-47.5q-12.06-59.64 43.5-83.5 7.65-2.04 15-3.5m2 37q26.76-.505 34.5 25c.5 12.329.67 24.662.5 37-12.71.348-25.38-.152-38-1.5q-31.245-12.732-19.5-44.5 7.86-13.029 22.5-16"/>
  <path style="opacity:.987" d="M1364.5 156.5q51.09-.854 70.5 46 1.98 6.9 3 14c.5 24.998.67 49.998.5 75-26.34.167-52.67 0-79-.5-28.86-5.861-47.03-23.028-54.5-51.5-5.82-38.197 9.01-64.697 44.5-79.5q7.65-2.04 15-3.5m2 37q27.6-.59 34.5 26c.5 11.995.67 23.995.5 36-12.71.348-25.38-.152-38-1.5q-25.92-9.066-22.5-36.5 6.285-19.043 25.5-24"/>
  <path style="opacity:.985" d="M104.5 159.5q41.003-.25 82 .5 46.5 4.501 54.5 50.5a1152 1152 0 0 1 1.5 79h-37q.25-33.005-.5-66-1.567-21.562-22.5-26.5a840 840 0 0 0-41-.5v93h-37z"/>
  <path style="opacity:.986" d="M578.5 159.5h94v37q-44.003-.25-88 .5-3.801 4.12 0 8 34.048.116 68 2 30.716 8.48 32 40.5-1.16 35.406-36 41.5-46.497.75-93 .5v-37q44.003.25 88-.5 6.302-5.284-1-9l-65-1q-40.113-11.93-31.5-53.5 8.106-23.868 32.5-29"/>
  <path style="opacity:.981" d="M837.5 159.5q41.003-.25 82 .5 51.786 6.29 55.5 58.5.75 35.496.5 71h-37q.25-33.504-.5-67-2.304-20.796-22.5-25.5a840 840 0 0 0-41-.5v93h-37z"/>
  <path style="opacity:.249" fill="#070707" d="M1064.5 159.5a257 257 0 0 1 1 32h-24c7.48-.992 15.15-1.325 23-1z"/>
  <path style="opacity:.992" d="M1293.5 159.5v36q-13.77-.49-27 1c-7.29-.546-11.45 2.788-12.5 10-.5 27.665-.67 55.331-.5 83h-37c-.17-29.335 0-58.669.5-88-1.04-22.123 9.12-35.623 30.5-40.5a393 393 0 0 1 46-1.5"/>
  <path style="opacity:.249" fill="#070707" d="M1293.5 159.5c1 12.155 1.33 24.489 1 37h-28q13.23-1.49 27-1z"/>
  <path style="opacity:.984" d="M1518.5 160.5q20.745-1.741 42-.5a1229 1229 0 0 0 27.5 50.5 2267 2267 0 0 1 26.5-50q21-2 42 0c-11.33 21.333-22.67 42.667-34 64 11.33 21.333 22.67 42.667 34 64a281 281 0 0 1-41 .5 3723 3723 0 0 1-27.5-50.5 1804 1804 0 0 0-27.5 50 294.6 294.6 0 0 1-42 .5c11.73-21.3 23.07-42.8 34-64.5a1466 1466 0 0 0-34-64"/>
  <path style="opacity:.981" d="M1665.5 159.5h37c-.17 23.669 0 47.336.5 71q6.45 22.73 30 25c13.6-1.606 23.27-8.606 29-21a977 977 0 0 0 1.5-75h37c.17 24.669 0 49.336-.5 74q-5.49 33.456-34.5 50.5c-36.81 15.759-66.98 7.592-90.5-24.5q-7.065-12.122-9-26c-.5-24.664-.67-49.331-.5-74"/>
  <path style="opacity:.987" d="M1878.5 197.5c.79-.283 1.46-.783 2-1.5-22.66-.5-45.33-.667-68-.5v-36h130c.17 12.338 0 24.671-.5 37l-67.5 55.5c22.66.5 45.33.667 68 .5v37h-130c-.17-12.671 0-25.338.5-38 22-17.834 43.83-35.834 65.5-54"/>
  <path style="opacity:.251" fill="#070707" d="M1812.5 195.5c22.67-.167 45.34 0 68 .5-.54.717-1.21 1.217-2 1.5z"/>
  <path style="opacity:.969" d="M1471.5 262.5c15.15-2.34 21.99 3.994 20.5 19-4.29 8.443-11.13 11.276-20.5 8.5-9.41-5.928-11.25-13.762-5.5-23.5a60 60 0 0 1 5.5-4"/>
  <path style="opacity:.988" d="M1665.5 291.5h37c1.9 18.404 12.07 28.738 30.5 31 18.43-2.262 28.6-12.596 30.5-31h37q-3 52.741-54 66.5-53.475 6.893-76.5-41.5a70.7 70.7 0 0 1-4.5-25"/>
</svg>
